<svg width="482" height="354" viewBox="0 0 482 354" fill="none" xmlns="http://www.w3.org/2000/svg">
<g clip-path="url(#clip0_0_11417)">
<path d="M239.378 10.2016C255.718 11.6464 269.66 14.2365 281.575 17.6548H281.593C362.038 40.7191 349.347 101.437 349.347 101.437C422.407 35.0984 480.713 112.802 482 114.511C476.941 101.014 470.825 90.319 464.127 81.8791C428.452 36.9309 376.085 56.0484 376.085 56.0484C311.574 -32.2446 239.378 10.2016 239.378 10.2016Z" fill="#403F57"/>
<path opacity="0.23" d="M349.347 101.437C422.407 35.0983 480.713 112.802 482 114.511C476.941 101.014 470.825 90.3188 464.127 81.8789C451.084 69.5979 432.295 60.3827 405.591 62.4619C405.591 62.4619 379.893 58.5679 364.963 74.2848C364.963 74.2848 349.541 24.7026 281.593 17.6547C362.038 40.719 349.347 101.437 349.347 101.437Z" fill="#212F5C"/>
<path d="M49.723 84.4344C128.987 64.7883 135.562 116.908 135.562 116.908C165.896 61.7049 217.082 95.9578 218.827 97.1384C181.512 51.9787 142.295 83.7649 142.295 83.7649C85.3451 44.0674 50.5162 83.5182 49.7054 84.4344H49.723Z" fill="#403F57"/>
<path opacity="0.23" d="M49.723 84.4344C128.987 64.7883 135.562 116.908 135.562 116.908C165.896 61.7048 217.082 95.9578 218.827 97.1383C217.258 95.8345 173.334 59.9252 140.356 99.0589C140.356 99.0589 118.782 59.2909 49.7054 84.4344H49.723Z" fill="#212F5C"/>
<path d="M281.593 187.651C289.648 189.942 296.363 192.602 301.951 195.474C338.701 214.328 326.856 242.678 326.856 242.678C369.335 216.777 390.592 261.566 390.592 261.566V261.531C389.746 256.65 388.547 252.386 387.067 248.651C374.958 217.993 344.218 222.961 344.218 222.961C320.934 173.661 281.593 187.651 281.593 187.651Z" fill="#403F57"/>
<path opacity="0.23" d="M326.856 242.678C369.335 216.776 390.592 261.566 390.592 261.566V261.531C390.592 260.967 390.504 255.152 387.067 248.651C381.832 238.678 368.736 227.066 336.092 230.15C336.092 230.15 330.522 198.822 301.951 195.474C338.701 214.327 326.856 242.678 326.856 242.678Z" fill="#212F5C"/>
<path d="M234.232 332.979C238.955 332.715 243.027 332.891 246.552 333.385C269.66 336.662 268.585 353.982 268.585 353.982C286.475 332.292 306.11 352.273 306.11 352.273C306.11 352.273 306.11 352.273 306.11 352.255C304.753 349.806 303.325 347.745 301.845 346.036C289.701 331.904 274.207 340.239 274.207 340.239C252.651 318.214 234.232 332.962 234.232 332.962V332.979Z" fill="#403F57"/>
<path opacity="0.23" d="M268.585 354C286.475 332.31 306.11 352.29 306.11 352.29C306.11 352.29 306.11 352.29 306.11 352.273C306.005 351.973 304.877 348.89 301.845 346.053C297.209 341.701 288.061 337.913 271.193 345.595C271.193 345.595 262.416 329.896 246.552 333.384C269.66 336.662 268.585 353.982 268.585 353.982V354Z" fill="#212F5C"/>
<path d="M0.000175476 290.251C5.94012 289.916 11.0693 290.145 15.4934 290.762C44.5586 294.867 43.2014 316.663 43.2014 316.663C65.6922 289.388 90.4038 314.531 90.4038 314.531C90.4038 314.531 90.4038 314.531 90.4038 314.514C88.6941 311.43 86.8962 308.84 85.0455 306.69C69.7814 288.912 50.2871 299.396 50.2871 299.396C23.1783 271.697 0.0177612 290.251 0.0177612 290.251H0.000175476Z" fill="#403F57"/>
<path opacity="0.23" d="M43.2014 316.681C65.6922 289.406 90.4038 314.549 90.4038 314.549C90.4038 314.549 90.4038 314.549 90.4038 314.532C90.2804 314.162 88.8527 310.268 85.0455 306.708C79.2113 301.229 67.7192 296.471 46.5151 306.145C46.5151 306.145 35.4813 286.41 15.511 290.798C44.5763 294.903 43.2191 316.699 43.2191 316.699L43.2014 316.681Z" fill="#212F5C"/>
<path d="M78.6649 216.406C82.243 215.948 85.3452 215.842 88.0419 216.036C105.756 217.234 105.915 230.432 105.915 230.432C118.27 212.988 134.292 227.049 134.292 227.049C133.129 225.269 131.931 223.789 130.714 222.556C120.72 212.512 109.422 219.701 109.422 219.701C91.8315 204.196 78.6825 216.406 78.6825 216.406H78.6649Z" fill="#403F57"/>
<path opacity="0.23" d="M105.897 230.431C118.253 212.988 134.275 227.048 134.275 227.048C134.187 226.819 133.147 224.546 130.697 222.555C126.925 219.507 119.786 217.146 107.431 223.93C107.431 223.93 99.9043 212.512 88.042 216.054C105.756 217.252 105.915 230.449 105.915 230.449L105.897 230.431Z" fill="#212F5C"/>
</g>
<defs>
<clipPath id="clip0_0_11417">
<rect width="482" height="354" fill="white" transform="matrix(-1 0 0 1 482 0)"/>
</clipPath>
</defs>
</svg>
